<svg xmlns="http://www.w3.org/2000/svg" version="1.1" xmlns:xlink="http://www.w3.org/1999/xlink" xmlns:svgjs="http://svgjs.dev/svgjs" width="2000" height="1247" viewBox="0 0 2000 1247"><g transform="matrix(1,0,0,1,-1.2121212121212466,0.504858299595071)"><svg viewBox="0 0 396 247" data-background-color="#ffffff" preserveAspectRatio="xMidYMid meet" height="1247" width="2000" xmlns="http://www.w3.org/2000/svg" xmlns:xlink="http://www.w3.org/1999/xlink"><g id="tight-bounds" transform="matrix(1,0,0,1,0.2400000000000091,-0.09999999999999432)"><svg viewBox="0 0 395.52 247.2" height="247.2" width="395.52"><g><svg></svg></g><g><svg viewBox="0 0 395.52 247.2" height="247.2" width="395.52"><g transform="matrix(1,0,0,1,118.51077,47.215199999999996)"><svg viewBox="0 0 158.49846 152.7696" height="152.7696" width="158.49846"><g><svg viewBox="0 0 158.49846 152.7696" height="152.7696" width="158.49846"><g><svg viewBox="0 0 158.49846 152.7696" height="152.7696" width="158.49846"><g><svg viewBox="0 0 158.49846 152.7696" height="152.7696" width="158.49846"><g id="textblocktransform"><svg viewBox="0 0 158.49846 152.7696" height="152.7696" width="158.49846" id="textblock"><g><svg viewBox="0 0 158.49846 152.7696" height="152.7696" width="158.49846"><g transform="matrix(1,0,0,1,0,0)"><svg width="158.49846" viewBox="-0.75 -36 37.35 36" height="152.7696" data-palette-color="#000000"><path d="M14.25-33.1L10.15-32.05 18.85-5.9 19.05-5.9 27.55-32.05 23.4-33.1 23.4-36 36.6-36 36.6-33.1 32.5-32.05 21.55 0 15.15 0 3.25-32.05-0.75-33.1-0.75-36 14.25-36 14.25-33.1Z" opacity="1" transform="matrix(1,0,0,1,0,0)" fill="#000000" class="wordmark-text-0" data-fill-palette-color="primary" id="text-0"></path></svg></g></svg></g></svg></g></svg></g></svg></g></svg></g></svg></g><g><path d="M202.849 0c30.402 0 58.24 10.976 79.768 29.183l-11.147 0c-19.26-14.022-42.974-22.294-68.621-22.295-25.647 0-49.361 8.272-68.621 22.295l-11.147 0c21.528-18.206 49.366-29.183 79.768-29.183zM326.449 123.6c0 17.484-3.63 34.121-10.178 49.196v-21.565c2.15-8.858 3.29-18.111 3.29-27.631 0-9.519-1.14-18.773-3.29-27.631l0-21.565c6.548 15.076 10.178 31.712 10.178 49.196zM202.849 247.2c-30.402 0-58.24-10.976-79.768-29.183l11.147 0c19.26 14.022 42.974 22.294 68.621 22.295 25.647 0 49.361-8.272 68.621-22.295l11.147 0c-21.528 18.206-49.366 29.183-79.768 29.183z" fill="#000000" stroke="transparent" data-fill-palette-color="tertiary"></path></g></svg></g><defs></defs></svg><rect width="395.52" height="247.2" fill="none" stroke="none" visibility="hidden"></rect></g></svg></g></svg>